<svg xmlns="http://www.w3.org/2000/svg" fill="none" viewBox="0 0 259 57"><path fill="#000" d="M3 30V8h14v4H8v5h8v4H8v9H3Zm23-3a27 27 0 0 0 3 0v-4a9 9 0 0 0-2 0h-3v1l-1 1 1 1 2 1Zm0-14h3l3 2 1 2v13a52 52 0 0 1-7 0h-3l-2-1-2-2v-5l2-1 2-1a12 12 0 0 1 6 0v-1l-1-2h-3a15 15 0 0 0-4 0l-1-3a12 12 0 0 1 3-1 17 17 0 0 1 3 0Zm27 9v3l-2 3-3 2h-6a8 8 0 0 1-5-5v-7l2-3a8 8 0 0 1 6-2h3a8 8 0 0 1 5 5v4Zm-5 0v-4l-3-1-3 1v7l3 1 3-1v-3Zm23 7a25 25 0 0 1-7 1h-3a5 5 0 0 1-4-4V13h5v12l2 1a20 20 0 0 0 3 0V13h4v16Zm17-13a379 379 0 0 1-8 10h9v4H75v-3a34 34 0 0 1 3-5 157 157 0 0 1 4-5h-7v-4h13v3Zm9 14h-5V13h5v17Zm0-22-1 2-2 1-2-1-1-2 1-2 2-1 2 1 1 2Zm18 0a50 50 0 0 1 3 6l1 3 2 4 1-4a210 210 0 0 1 5-9h5a99 99 0 0 1 1 16v6h-5a569 569 0 0 0-2-12l-1 4a284 284 0 0 1-2 5h-4a315 315 0 0 0-5-12 191 191 0 0 0-1 15h-5a1056 1056 0 0 1 2-22h5Zm38 14v3l-2 3-3 2h-6a8 8 0 0 1-5-5v-7l2-3a8 8 0 0 1 6-2h3a8 8 0 0 1 5 5v4Zm-5 0-1-4-2-1-3 1v7l3 1 2-1 1-3Zm9 8V6l5-1v8h6l2 2 1 2v13h-4v-9l-1-3-2-1h-2v13h-5Zm25-3a27 27 0 0 0 3 0v-4a9 9 0 0 0-2 0h-3v1l-1 1 1 1 2 1Zm0-14h3l3 2 1 2v13a52 52 0 0 1-7 0h-3l-2-1-2-2v-5l2-1 2-1a12 12 0 0 1 6 0v-1l-1-2h-3a15 15 0 0 0-4 0l-1-3a12 12 0 0 1 3-1 17 17 0 0 1 3 0Zm21 8-1-3-2-1h-2v13h-5V14a24 24 0 0 1 5-1h5l2 1 3-1a8 8 0 0 1 5 0l2 2 1 2 1 3v10h-5v-9l-1-3-2-1h-1l-1 1v12h-4v-9Zm17 1 1-4 2-3a8 8 0 0 1 5-2c3 0 5 0 6 2l2 6a14 14 0 0 1 0 2h-11l1 2 4 1a14 14 0 0 0 4 0l1 3-1 1h-1a17 17 0 0 1-4 0h-4l-3-2-1-3-1-3Zm11-2v-2l-1-1h-2a3 3 0 0 0-2 1l-1 1v1h6Zm13 1 1 4 3 1a20 20 0 0 0 2 0v-8l-1-1h-2c-2 0-3 1-3 4Zm11 8a24 24 0 0 1-7 1h-4l-3-2-2-3v-7l2-3 2-2a8 8 0 0 1 5 0l2 1V6l5-1v24Z"/><path stroke="#FDC172" d="m2 39 188-5 56 1c12 1 15 13 5 17l-8 1-4-1c-8-2-9-9-3-12 8-4 17 3 12 9l-3 3c-3 4-9 5-13 3l-27-12-4-1c-4-2-8-2-13-3h-45L2 34"/></svg>