<svg xmlns="http://www.w3.org/2000/svg" fill="none" viewBox="0 0 67 7"><path stroke="url(#a)" stroke-width=".7" d="m1 3.3534 5.70407 2.76201c2.37813 1.15153 5.23993.16988 6.41053-2.19894.8706-1.76186 2.7252-2.81715 4.6846-2.66559l3.6158.27968c2.3353.18064 4.1726 2.06867 4.2896 4.4081.0197.39322.4883.58593.7789.32031L30.9188 2.205c.0601-.05492.0901-.08238.1174-.10555.7056-.60009 1.731-.63711 2.4781-.08946.0288.02115.0608.04637.1247.09681.1844.14565.2767.21848.3663.28603 2.2669 1.70865 5.1531 2.37334 7.939 1.82834.1102-.02155.225-.04669.4546-.09698l2.1057-.46124c.8363-.18319 1.2545-.27479 1.6764-.3302.5485-.07203 1.102-.09842 1.6549-.0789.4253.01502.8503.06641 1.7002.1692l5.792.70045c.8699.1052 1.3049.1578 1.7413.17224.2864.00948.5731.00664.8594-.00851.436-.02309.8698-.0843 1.7374-.20671L66.5 3.11635"/><defs><linearGradient id="a" x1="7.08851" x2="65.0815" y1="1.15178" y2="-13.3337" gradientUnits="userSpaceOnUse"><stop stop-color="#0400B6"/><stop offset=".72698" stop-color="#B60016" stop-opacity=".71"/><stop offset="1" stop-color="#00B6AB" stop-opacity=".71"/></linearGradient></defs></svg>
