<svg xmlns="http://www.w3.org/2000/svg" fill="none" viewBox="0 0 42 43"><g clip-path="url(#a)"><path fill="url(#b)" d="M41.9 21.5c0-11.6-9.2-21-20.5-21a20.8 20.8 0 0 0-20.5 21c0 11.6 9.1 21 20.5 21 11.3 0 20.5-9.4 20.5-21Z"/><path fill="#fff" d="M12 22.4 26 8.2c.2-.3.6 0 .4.4l-5.2 9.7c0 .3 0 .5.3.5h9c.3 0 .4.4.2.6L15 34.4c-.3.3-.7 0-.5-.4L22 23.5c.1-.2 0-.5-.3-.5h-9.5c-.3 0-.4-.4-.2-.6Z"/></g><defs><linearGradient id="b" x1="21.4" x2="21.4" y1=".5" y2="42.5" gradientUnits="userSpaceOnUse"><stop stop-color="#7BCBD4"/><stop offset="1" stop-color="#29C6B7"/></linearGradient><clipPath id="a"><path fill="#fff" d="M.9.5h41v42H.9z"/></clipPath></defs></svg>