<svg xmlns="http://www.w3.org/2000/svg" fill="none" viewBox="0 0 55 54"><g clip-path="url(#a)"><path fill="#5C2D91" d="M27.5 54a27 27 0 1 0 0-54 27 27 0 0 0 0 54Z"/><path fill="#fff" d="M8.8 7.6A27 27 0 1 0 47 45.7L8.8 7.6Z" opacity=".1"/><path fill="#fff" d="M6.8 31.4a1.1 1.1 0 0 1-.9-.3 1.2 1.2 0 0 1-.3-.9 1.2 1.2 0 0 1 .3-.8 1.1 1.1 0 0 1 .9-.4 1.2 1.2 0 0 1 .8.4 1.2 1.2 0 0 1 0 1.7 1.2 1.2 0 0 1-.8.3Zm16.8-.2h-2.3L13.4 19a5 5 0 0 1-.4-1h-.1v13.2h-1.7V15.8h2.3l7.7 12 .6 1.1V15.8h1.8v15.4Zm12.1 0h-8.2V15.8h7.8v1.7h-6v5H35v1.7h-5.5v5.3h6.3v1.7Zm12.1-13.7h-4.5v13.7h-1.8V17.5h-4.4v-1.7h10.7v1.7Z"/><path fill="#F2F2F2" d="M22.6 41.7c-.6.3-1.3.4-2 .4a3.2 3.2 0 0 1-2.4-1c-.6-.7-1-1.6-.9-2.5a3.8 3.8 0 0 1 1-2.8 3.5 3.5 0 0 1 2.6-1c.6 0 1.2 0 1.7.3v.8a3.4 3.4 0 0 0-2.8-.2l-.9.7a3 3 0 0 0-.7 2.1c0 .8.2 1.5.7 2.1a2.4 2.4 0 0 0 1.8.8c.7 0 1.3-.2 1.9-.5v.8Zm3.4.3a2.3 2.3 0 0 1-1.8-.7c-.4-.5-.7-1.1-.6-1.8a2.7 2.7 0 0 1 .7-2 2.5 2.5 0 0 1 1.9-.7 2.3 2.3 0 0 1 1.7.7c.5.5.7 1.2.7 1.9s-.3 1.4-.7 2a2.4 2.4 0 0 1-1.9.7Zm.1-4.5a1.5 1.5 0 0 0-1.2.5c-.4.4-.5 1-.5 1.5s.1 1 .5 1.4a1.6 1.6 0 0 0 1.2.5 1.5 1.5 0 0 0 1.2-.5c.3-.4.5-1 .4-1.4 0-.6 0-1-.4-1.5a1.5 1.5 0 0 0-1.2-.5Zm6.4.2a1 1 0 0 0-.6-.1 1 1 0 0 0-.9.5c-.2.4-.3.8-.3 1.3V42h-.9v-5h.9v1c0-.4.3-.7.5-.9.2-.2.5-.3.8-.3l.5.1v.8Zm4.9 2H34c0 .4.1.9.4 1.3a1.6 1.6 0 0 0 1.2.4c.6 0 1.1-.2 1.6-.6v.8a3 3 0 0 1-1.8.5 2.1 2.1 0 0 1-1.7-.7c-.4-.6-.6-1.2-.6-2 0-.6.2-1.3.7-1.9a2.2 2.2 0 0 1 1.7-.7 2 2 0 0 1 1.5.6c.4.5.6 1.2.5 1.8v.5Zm-.8-.7a2 2 0 0 0-.3-1.1 1.2 1.2 0 0 0-1-.4 1.3 1.3 0 0 0-1 .4c-.2.3-.4.7-.4 1h2.7Z"/></g><defs><clipPath id="a"><path fill="#fff" d="M.5 0h54v54H.5z"/></clipPath></defs></svg>