<svg xmlns="http://www.w3.org/2000/svg" xml:space="preserve" fill-rule="evenodd" clip-rule="evenodd" image-rendering="optimizeQuality" shape-rendering="geometricPrecision" text-rendering="geometricPrecision" viewBox="0 0 2316 2316"><defs><style>.fil2{fill:#5c2d91}.fil0{fill:#6d429c}.fil1{fill:#fff}</style></defs><g id="Layer_x0020_1"><g id="_2145390249968"><path d="M339 1977c-452-452-452-1185 0-1638 453-452 1186-452 1638 0 452 453 452 1186 0 1638s-1185 452-1638 0z" class="fil0"/><path d="M268 1245a51.4 51.4 0 0 1 0 103 51.4 51.4 0 0 1 0-103z" class="fil1"/><path d="M339 339c453-452 1186-452 1638 0 452 453 452 1186 0 1638L339 339z" class="fil2"/><path d="M907 1142c-1 33 1 65 5 98h-2c-4-8-13-23-27-45L552 676H452v663h77V860c1-30 0-61-3-91h3c5 14 12 28 21 41l339 529h95V676h-77v466zm600 124h-272v-230h238v-69h-238V746h255v-70h-335v663h352v-73zm59-590v70h190v593h77V746h192v-70h-459zm-756 827c-19 8-37 20-51 35a164 164 0 0 0-44 118c-1 40 13 79 39 109 14 14 30 25 48 33 18 7 37 10 56 9 29 1 58-5 84-18l1-34c-24 15-52 21-80 21a109.2 109.2 0 0 1-80-33c-19-23-30-53-30-83v-6c-2-35 10-68 33-94 10-12 24-21 38-28 14-6 29-9 44-9h3c25 0 50 6 72 19v-37c-21-8-43-13-66-13h-6c-21 0-42 4-61 11zm362 104c-19-19-44-30-71-30h-5c-15-1-30 2-44 7-14 6-26 14-37 24-10 12-18 25-24 40-5 15-7 30-6 46-1 30 9 59 29 81 9 10 21 19 35 25 13 5 27 8 42 7 14 1 29-2 43-8 13-5 25-14 35-25 19-21 30-49 30-77v-6c1-31-8-61-27-84zm-25 148c-12 14-30 22-48 22h-4a71.7 71.7 0 0 1-53-23c-13-16-20-35-20-56 0-1 1-3 1-5-2-23 5-45 19-63 7-8 15-14 24-18s19-5 29-5c10-1 19 1 28 5s17 10 24 18c12 16 18 36 18 56v7c1 22-5 44-18 62zm166-162a77 77 0 0 0-23 36v-45h-36v218h36v-111c-1-20 4-41 15-58a46.3 46.3 0 0 1 63-14v-36c-7-2-14-3-21-3-12 0-24 5-34 13zm267 90c2-28-7-55-23-77-9-9-19-17-30-21-12-5-24-7-36-7-14 0-28 3-40 8-13 6-24 14-33 24-18 22-28 50-28 78v5c-2 30 7 60 26 84 9 10 20 18 33 23 12 5 26 7 40 7 26 1 53-6 75-21v-33c-19 16-43 24-67 24-10 1-19 0-28-4-9-3-17-8-24-15-12-15-18-33-18-52v-4h153v-19zm-151-8c2-17 9-33 21-46 11-11 26-18 41-18h1c7 0 15 1 22 4s13 7 18 13c10 13 15 30 14 47h-117z" class="fil1"/></g></g></svg>