<svg xmlns="http://www.w3.org/2000/svg" fill="none" viewBox="0 0 95 9"><path stroke="url(#a)" d="M0 4h28a2 2 0 0 0 2-1.5 2 2 0 0 1 3-1.3l12.3 6.4.3.2.8-.1.3-.2 2.1-1.7c1.7-1.3 2.5-2 3.4-2.4a10 10 0 0 1 2-.7c1-.3 2-.4 4-.5l21.9-1.1h1.1A10 10 0 0 1 83 1l11 1.6"/><defs><linearGradient id="a" x1="12.3" x2="69.8" y1="3.3" y2="-58.9" gradientUnits="userSpaceOnUse"><stop stop-color="#0400B6"/><stop offset=".7" stop-color="#B60016" stop-opacity=".7"/><stop offset="1" stop-color="#00B6AB" stop-opacity=".7"/></linearGradient></defs></svg>
