<svg xmlns="http://www.w3.org/2000/svg" fill="none" viewBox="0 0 40 6"><path stroke="url(#a)" stroke-width=".7" d="m1 2.57143 6.30669-1.00491c2.06422-.32891 3.09631-.49337 4.12081-.44582.671.03115 1.3371.12982 1.9883.29453.9943.25147 1.9344.70806 3.8146 1.62125l3.796 1.84361c.3773.1833.566.27494.7607.28797.1266.00847.2537-.00723.3744-.04627.1856-.06001.3463-.19483.6677-.46448l3.6694-3.07825c.5886-.49378 1.4377-.5239 2.0598-.07308 2.1631 1.56756 4.9442 2.00933 7.4866 1.18924l3.1307-1.00983"/><defs><linearGradient id="a" x1="6.165" x2="54.829" y1=".857" y2="-12.386" gradientUnits="userSpaceOnUse"><stop stop-color="#0400B6"/><stop offset=".727" stop-color="#B60016" stop-opacity=".71"/><stop offset="1" stop-color="#00B6AB" stop-opacity=".71"/></linearGradient></defs></svg>