<svg xmlns="http://www.w3.org/2000/svg" fill="none" viewBox="0 0 320 98"><path fill="url(#a)" d="M397 55c6 1 12-2 13-8 1-9-4-19-15-28-15-11-40-22-72-30A806 806 0 0 0 85-23C43-18 8-11-19-2-46 8-64 19-71 32c-8 12-4 24 10 36 14 11 37 21 68 29h8l150-52 5-1 227 11Z"/><defs><linearGradient id="a" x1="167.5" x2="167.5" y1="-27" y2="115" gradientUnits="userSpaceOnUse"><stop stop-color="#0a1927"/><stop offset=".3" stop-color="#0f1f2f"/><stop offset="1" stop-color="#0f1f4f"/></linearGradient></defs></svg>