<?xml version="1.0" encoding="UTF-8" standalone="no"?>
<svg
   xmlns:dc="http://purl.org/dc/elements/1.1/"
   xmlns:cc="http://creativecommons.org/ns#"
   xmlns:rdf="http://www.w3.org/1999/02/22-rdf-syntax-ns#"
   xmlns:svg="http://www.w3.org/2000/svg"
   xmlns="http://www.w3.org/2000/svg"
   xmlns:sodipodi="http://sodipodi.sourceforge.net/DTD/sodipodi-0.dtd"
   xmlns:inkscape="http://www.inkscape.org/namespaces/inkscape"
   width="150"
   height="15"
   viewBox="0 0 150 15"
   version="1.1"
   id="svg4"
   sodipodi:docname="header-line-blob.svg"
   inkscape:version="0.92.5 (2060ec1f9f, 2020-04-08)"
   style="fill:none">
  <metadata
     id="metadata10">
    <rdf:RDF>
      <cc:Work
         rdf:about="">
        <dc:format>image/svg+xml</dc:format>
        <dc:type
           rdf:resource="http://purl.org/dc/dcmitype/StillImage" />
        <dc:title></dc:title>
      </cc:Work>
    </rdf:RDF>
  </metadata>
  <defs
     id="defs8" />
  <sodipodi:namedview
     pagecolor="#ffffff"
     bordercolor="#666666"
     borderopacity="1"
     objecttolerance="10"
     gridtolerance="10"
     guidetolerance="10"
     inkscape:pageopacity="0"
     inkscape:pageshadow="2"
     inkscape:window-width="1366"
     inkscape:window-height="744"
     id="namedview6"
     showgrid="false"
     inkscape:zoom="2.4778761"
     inkscape:cx="122.2289"
     inkscape:cy="-3.2251873"
     inkscape:window-x="0"
     inkscape:window-y="0"
     inkscape:window-maximized="1"
     inkscape:current-layer="svg4" />
  <path
     d="M 0.73822435,4.229329 109.54107,1.229925 142.40888,2.0596309 c 6.87393,0.1735554 8.72158,7.1711327 2.53783,9.4273541 v 0 c -1.30428,0.475905 -2.80216,0.596281 -4.20926,0.332734 l -2.68871,-0.5032 c -4.22527,-0.791143 -5.14577,-4.9801493 -1.48185,-6.7440183 v 0 c 4.44823,-2.1419137 9.6948,1.7098897 6.922,5.0832779 l -1.69678,2.0659594 c -1.60869,1.957211 -4.99559,2.61228 -7.66828,1.483105 L 118.45797,6.5864099 c -0.99205,-0.4190766 -1.488,-0.6286149 -1.99143,-0.8142579 -2.41262,-0.8898029 -5.04004,-1.4065101 -7.72527,-1.5192977 -0.56017,-0.023525 -1.12969,-0.023525 -2.26858,-0.023525 H 82.840983 L 0.73822435,1.229926"
     id="path2"
     inkscape:connector-curvature="0"
     style="stroke:#fdc172;stroke-width:1.15530896" />
</svg>
