<svg xmlns="http://www.w3.org/2000/svg" fill="none" viewBox="0 0 54 49"><path fill="#007ACC" d="M.7 24.5v23.9h53.1V.7H.7v23.8Z"/><path fill="#fff" d="M43.5 22.6c1.3.3 2.5.9 3.3 1.8.5.4 1 1 1.3 1.5L44.4 28l-.5-.4c-.2-.4-.6-.8-1-1-.4-.2-1-.4-1.4-.4-1.7 0-2.7.7-2.7 2 0 .2 0 .5.2.8.4.7 1 1 3.1 1.9 3.8 1.4 5.4 2.4 6.5 3.8a6.4 6.4 0 0 1 .6 5.8c-.5 1-1.4 2-2.4 2.6-1 .7-2.2 1-3.5 1.2h-4c-2.1-.4-4-1.2-5.4-2.6-.6-.5-1-1.2-1.4-1.8l.5-.3 2-1 1.4-.8.4.4a5.4 5.4 0 0 0 7.2 1.5c.3-.3.6-.8.6-1.3s0-1-.3-1.3c-.5-.6-1.3-1-3.7-2-1.9-.5-3.6-1.5-5-2.7a6.1 6.1 0 0 1-1.5-2.4c-.2-1-.2-2 0-3a5 5 0 0 1 1.9-3c1-.9 2.2-1.4 3.5-1.6a15 15 0 0 1 4 .1Zm-12.4 2v2h-7v17.6h-4.8V26.6h-7v-2l.1-1.9H31v2Z"/></svg>