<svg xmlns="http://www.w3.org/2000/svg" fill="none" viewBox="0 0 46 45"><path fill="#DD4814" d="M23.3.5A22.3 22.3 0 0 0 .8 22.7c0 12.2 10 22 22.5 22 12.4 0 22.5-9.8 22.5-22C45.8 10.4 35.8.5 23.3.5Zm5 7.7A3 3 0 0 1 32.6 7a3 3 0 0 1 1 4 3 3 0 0 1-4 1 3 3 0 0 1-1.1-4Zm-5 1.6c1.2 0 2.4.2 3.5.5.2 1.2 1 2.3 2 3 1.2.6 2.5.6 3.7.2 2.2 2.2 3.6 5 3.8 8.3h-4.2a8.7 8.7 0 0 0-8.8-7.8 9 9 0 0 0-3.7.8l-2-3.6a12 12 0 0 1 5.7-1.4ZM8 25.6a3 3 0 0 1-3-3 3 3 0 0 1 3-2.9 3 3 0 0 1 3 3 3 3 0 0 1-3 2.9Zm2.7.3a4.1 4.1 0 0 0 0-6.5 13 13 0 0 1 5.4-7.4l2.2 3.6a8.6 8.6 0 0 0 0 14.1L16 33.3a12.9 12.9 0 0 1-5.4-7.4Zm21.8 12.3a3 3 0 0 1-4.1-1 3 3 0 0 1 1-4 3 3 0 0 1 4.2 1 3 3 0 0 1-1.1 4Zm0-6.4a4.3 4.3 0 0 0-3.6.3 4.1 4.1 0 0 0-2 3 13.3 13.3 0 0 1-9.4-1l2.1-3.6a8.8 8.8 0 0 0 12.5-7.1h4.2c-.2 3.3-1.6 6.3-3.8 8.4Z"/></svg>