<svg xmlns="http://www.w3.org/2000/svg" fill="none" viewBox="0 0 225 211"><path fill="#7ED0EC" d="M121 207c15 4 31 7 45 0s21-22 29-36c7-12 10-25 15-38s13-26 14-40c1-15 0-31-8-44s-24-17-37-25c-12-8-22-23-36-24-15-1-26 14-41 18-12 4-28-1-39 7s-9 26-18 35C32 74 2 73 0 91s28 24 36 41c7 12-2 31 7 42 10 11 28 7 41 13 13 5 23 17 37 20Z"/><path fill="#30425E" d="M81 191c-6 0-12-2-17-4-17-6-26-18-28-35l-3-37-1-37c0-11 1-21 5-31 5-11 13-18 24-23a300 300 0 0 1 82-7c14 1 28 3 41 8 9 4 15 11 18 20 4 11 5 22 6 32 1 17 2 34 1 51 0 11-2 22-7 32-7 16-18 28-36 30l-19 2h-28l-38-1Zm43-13 36-2c10 0 17-4 23-11 8-11 10-22 11-35 2-20 1-40-1-60-1-7-2-15-6-21l-3-5c-3-5-6-9-11-10-12-3-23-5-35-5a474 474 0 0 0-67 7c-12 2-19 10-22 22s-3 24-2 36l2 35 2 22c1 11 7 19 19 22l16 4 38 1Z"/><path fill="#C7F9FC" d="m124 178-38-1-16-4c-12-3-18-11-19-22l-2-22-2-35c-1-12-1-24 2-36s10-20 22-22a218 218 0 0 1 67-7c12 0 23 2 35 5 5 1 8 5 11 10l3 5c4 6 5 14 6 21 2 20 3 40 1 60-1 13-3 24-11 35-6 7-13 11-23 11l-36 2Zm-25-35 3 4c3 2 7 1 9-3l3-9 21-72c1-4-1-8-4-9-4-1-8 1-9 5l-1 6-19 67-3 11Zm-30-43 25-20c3-2 4-5 3-8-2-2-5-3-8-2l-5 3-26 21c-2 2-3 4-3 7l4 7c7 8 16 13 25 19 3 3 8 0 9-4 1-3 0-5-3-7l-12-9-9-7Zm101 0-2 2-25 18c-3 3-4 6-2 9s6 4 10 1l30-25c4-3 4-8 0-11l-14-11-11-8-3-2c-3-1-6 0-8 2-1 2-1 6 2 7l10 8 13 10Z"/><path fill="#30425E" d="m99 143 3-11 19-67 1-6c1-4 5-6 9-5 3 1 5 5 4 9l-21 72-3 9c-2 4-6 5-9 3l-3-4Zm-30-43 9 7 12 9c2 2 4 4 3 7-1 4-6 7-9 4-9-6-18-11-25-20-2-1-3-4-4-6 0-3 1-5 3-7a2319 2319 0 0 1 31-24c3-1 6 0 8 2 1 3 0 6-3 8l-25 20Zm101 0-13-10-10-8c-3-2-3-5-2-7 2-2 5-3 8-2l3 2 11 8 14 11c4 3 4 8 0 11l-30 25c-4 3-8 2-10-1s-1-6 2-9l25-18 2-2Z"/></svg>