<svg xmlns="http://www.w3.org/2000/svg" fill="none" viewBox="0 0 207 207"><g clip-path="url(#a)"><path fill="#036D92" d="M111.3 196.9c13.8 3.7 28.5 6.4 41.4 0 12.9-6.5 19.3-20.3 26.7-33.1 6.4-11 9.2-23 13.8-35 4.6-12 12-24 12.9-36.8.9-13.8 0-28.5-7.4-40.5-7.3-12-22-15.6-34-23-11-7.3-20.3-21.1-33.1-22-13.8-1-24 12.8-37.8 16.5-11 3.7-25.7-1-35.8 6.4-10.2 7.4-8.3 24-16.6 32.2-12 13-39.6 12-41.4 28.6-1.8 16.5 25.8 22 33.1 37.7 6.5 11-1.8 28.5 6.5 38.6 9.2 10.1 25.7 6.5 37.7 12 12 4.6 21.1 15.6 34 18.4Z"/><path fill="#2E4364" d="M74.5 182.2a44 44 0 0 1-15.6-3.7A36.4 36.4 0 0 1 33 146.3l-2.7-34-1-34.1c0-10.1 1-19.3 4.6-28.5A41.4 41.4 0 0 1 56 28.5a276 276 0 0 1 75.5-6.4c12.8.9 25.7 2.7 37.7 7.3a29.8 29.8 0 0 1 16.5 18.4c3.7 10.2 4.6 20.3 5.6 29.5.9 15.6 1.8 31.3.9 46.9 0 10.1-1.9 20.2-6.5 29.4-6.4 14.8-16.5 25.8-33 27.6l-17.6 1.9h-25.7l-35-1Zm39.6-12 33.1-1.8c9.2 0 15.6-3.7 21.2-10.2a58 58 0 0 0 10-32.2c2-18.4 1-36.8-.8-55.2-1-6.4-1.9-13.8-5.6-19.3l-2.7-4.6c-2.8-4.6-5.5-8.3-10.1-9.2-11-2.7-21.2-4.6-32.2-4.6-20.7.7-41.3 2.9-61.7 6.5-11 1.8-17.5 9.2-20.2 20.2-2.8 11-2.8 22-1.9 33.1l1.9 32.2 1.8 20.3c1 10 6.5 17.4 17.5 20.2l14.7 3.7 35 .9Z"/><path fill="#33496C" d="m114 170.2-34.9-1-14.7-3.6a21.4 21.4 0 0 1-17.5-20.2L45.1 125l-1.9-32c-.9-11-.9-22 1.9-33.1 2.7-11 9.2-18.4 20.2-20.2C85.4 34.2 106.2 32 127 33c11 0 21.1 1.9 32.2 4.6 4.6 1 7.3 4.6 10 9.2l2.8 4.6c3.7 5.5 4.6 12.9 5.6 19.3a283 283 0 0 1 .9 55.2 58 58 0 0 1-10.1 32.2 26.2 26.2 0 0 1-21.2 10.2l-33.1 1.8ZM91 138l2.8 3.7c2.8 1.8 6.5.9 8.3-2.8l2.8-8.3 19.3-66.2c1-3.7-1-7.4-3.7-8.3-3.7-.9-7.3 1-8.3 4.6l-.9 5.5L93.8 128l-2.7 10ZM63.6 98.4l23-18.4c2.7-1.8 3.7-4.6 2.7-7.3a7 7 0 0 0-7.3-1.9l-4.6 2.8-24 19.3a8.4 8.4 0 0 0-2.7 6.5l3.7 6.4c6.4 7.4 14.7 12 23 17.5 2.7 2.7 7.3 0 8.3-3.7.9-2.8 0-4.6-2.8-6.4l-11-8.3-8.3-6.5Zm92.9 0-1.8 1.9-23 16.5c-2.8 2.8-3.7 5.6-1.9 8.3 1.9 2.8 5.5 3.7 9.2 1l27.6-23c3.7-2.8 3.7-7.4 0-10.2l-12.9-10.1-10-7.4-2.8-1.8a7 7 0 0 0-7.4 1.8c-1 1.9-1 5.6 1.8 6.5l9.2 7.3 12 9.2Z"/><path fill="#96CACD" d="m91 138 2.8-10.1 17.5-61.7 1-5.5c.9-3.7 4.5-5.5 8.2-4.6 2.8 1 4.6 4.6 3.7 8.3l-19.3 66.2-2.8 8.3c-1.8 3.7-5.5 4.6-8.3 2.8l-2.7-3.7ZM63.6 98.4l8.3 6.5 11 8.3c1.8 1.8 3.7 3.6 2.8 6.4-1 3.7-5.6 6.4-8.3 3.7-8.3-5.5-16.6-10.1-23-18.4-1.9-1-2.8-3.7-3.7-5.5 0-2.8 1-4.6 2.8-6.5 9.4-7.4 19-14.8 28.5-22a7 7 0 0 1 7.3 1.8c1 2.7 0 5.5-2.7 7.3l-23 18.4Zm92.9 0-12-9.2-9.2-7.3a4.9 4.9 0 0 1-1.8-6.5c1.8-1.8 4.6-2.7 7.4-1.8l2.7 1.8 10.1 7.4 13 10.1c3.6 2.8 3.6 7.4 0 10.1L139 126c-3.7 2.8-7.3 1.9-9.2-.9-1.8-2.7-.9-5.5 1.9-8.3l23-16.5 1.8-1.9Z"/></g><defs><clipPath id="a"><path fill="#fff" d="M0 0h207v207H0z"/></clipPath></defs></svg>